<svg width="120" height="25" viewBox="0 0 120 25" fill="none" xmlns="http://www.w3.org/2000/svg">
<path d="M5.825 22.5086L7.45 15.4836L2 10.7586L9.2 10.1336L12 3.50861L14.8 10.1336L22 10.7586L16.55 15.4836L18.175 22.5086L12 18.7836L5.825 22.5086Z" fill="#F0FF23"/>
<path d="M29.825 22.5086L31.45 15.4836L26 10.7586L33.2 10.1336L36 3.50861L38.8 10.1336L46 10.7586L40.55 15.4836L42.175 22.5086L36 18.7836L29.825 22.5086Z" fill="#F0FF23"/>
<path d="M53.825 22.5086L55.45 15.4836L50 10.7586L57.2 10.1336L60 3.50861L62.8 10.1336L70 10.7586L64.55 15.4836L66.175 22.5086L60 18.7836L53.825 22.5086Z" fill="#F0FF23"/>
<path d="M77.825 22.5086L79.45 15.4836L74 10.7586L81.2 10.1336L84 3.50861L86.8 10.1336L94 10.7586L88.55 15.4836L90.175 22.5086L84 18.7836L77.825 22.5086Z" fill="#F0FF23"/>
<path d="M101.825 22.5086L103.45 15.4836L98 10.7586L105.2 10.1336L108 3.50861L110.8 10.1336L118 10.7586L112.55 15.4836L114.175 22.5086L108 18.7836L101.825 22.5086Z" fill="#F0FF23"/>
</svg>
