<svg width="67" height="74" viewBox="0 0 67 74" fill="none" xmlns="http://www.w3.org/2000/svg">
<g clip-path="url(#clip0_326_1267)">
<path d="M18.4906 2H16.5094C7.39153 2 0 9.39153 0 18.5094V20.4906C0 29.6085 7.39153 37 16.5094 37H18.4906C27.6085 37 35 29.6085 35 20.4906V18.5094C35 9.39153 27.6085 2 18.4906 2Z" fill="#2BFF91"/>
<path d="M17 6V11" stroke="black" stroke-width="2" stroke-linecap="round" stroke-linejoin="round"/>
<path d="M23.1876 14.75C23.1876 14.2575 23.0825 13.7699 22.8783 13.3149C22.6742 12.86 22.3748 12.4466 21.9977 12.0984C21.6204 11.7501 21.1726 11.4739 20.6797 11.2854C20.1868 11.097 19.6585 11 19.125 11H15.4688C14.3913 11 13.358 11.3951 12.5961 12.0984C11.8343 12.8016 11.4063 13.7554 11.4062 14.75C11.4063 15.7446 11.8343 16.6984 12.5961 17.4016C13.358 18.1049 14.3913 18.5 15.4688 18.5H19.9376C21.015 18.5 22.0482 18.8951 22.8101 19.5984C23.572 20.3016 24 21.2554 24 22.25C24 23.2446 23.572 24.1984 22.8101 24.9016C22.0482 25.605 21.015 26 19.9376 26H15.0625C13.9851 26 12.9517 25.605 12.1899 24.9016C11.428 24.1984 11 23.2446 11 22.25" stroke="black" stroke-width="3" stroke-linecap="round" stroke-linejoin="round"/>
<path d="M17 26V30" stroke="black" stroke-width="2" stroke-linecap="round" stroke-linejoin="round"/>
</g>
<rect x="31" y="1" width="35" height="36" rx="17.5" fill="#2BFF91"/>
<rect x="31" y="1" width="35" height="36" rx="17.5" stroke="black" stroke-width="2"/>
<path d="M44.5414 17.6032H52.4586C52.5812 17.6034 52.7021 17.5752 52.8118 17.5206C52.9216 17.4661 53.0171 17.3867 53.0909 17.2889C53.1647 17.1911 53.2148 17.0774 53.2371 16.9569C53.2594 16.8364 53.2533 16.7124 53.2195 16.5946L51.636 11.0528C51.5889 10.8873 51.4891 10.7417 51.3518 10.638C51.2146 10.5343 51.0472 10.4782 50.8752 10.478H46.1249C45.9528 10.4782 45.7855 10.5343 45.6482 10.638C45.5109 10.7417 45.4112 10.8873 45.364 11.0528L43.7806 16.5946C43.7471 16.7124 43.7413 16.8363 43.7637 16.9566C43.7862 17.077 43.8362 17.1905 43.91 17.2883C43.9837 17.386 44.0791 17.4653 44.1887 17.52C44.2982 17.5746 44.419 17.6031 44.5414 17.6032ZM46.8034 12.8531H48.6132L47.9347 15.2281H46.1249L46.8034 12.8531ZM46.8857 18.9704C46.8387 18.8048 46.739 18.6591 46.6017 18.5552C46.4644 18.4513 46.297 18.3951 46.1249 18.3949H41.3746C41.2025 18.395 41.0352 18.4512 40.8979 18.5549C40.7606 18.6586 40.6609 18.8042 40.6137 18.9697L39.0303 24.5115C38.9967 24.6292 38.991 24.7531 39.0134 24.8735C39.0359 24.9939 39.0859 25.1074 39.1597 25.2051C39.2334 25.3029 39.3288 25.3822 39.4384 25.4368C39.5479 25.4915 39.6687 25.52 39.7911 25.5201H47.7083C47.8309 25.5203 47.9518 25.492 48.0615 25.4375C48.1713 25.3829 48.2668 25.3036 48.3406 25.2058C48.4144 25.1079 48.4645 24.9943 48.4868 24.8738C48.5091 24.7533 48.503 24.6292 48.4691 24.5115L46.8857 18.9704ZM43.8629 23.145H42.0531L42.7316 20.77H44.5414L43.8629 23.145Z" fill="black"/>
<path d="M57.9701 24.5131L56.3867 18.9712C56.3394 18.8059 56.2396 18.6603 56.1024 18.5566C55.9651 18.453 55.7979 18.3967 55.6258 18.3965H50.8755C50.7035 18.3966 50.5362 18.4528 50.3989 18.5565C50.2616 18.6602 50.1619 18.8058 50.1147 18.9712L48.5313 24.5131C48.4977 24.6308 48.4919 24.7547 48.5144 24.8751C48.5368 24.9955 48.5869 25.109 48.6606 25.2067C48.7344 25.3045 48.8298 25.3838 48.9393 25.4384C49.0489 25.4931 49.1697 25.5216 49.2921 25.5217H57.2093C57.3318 25.5219 57.4528 25.4936 57.5625 25.4391C57.6723 25.3845 57.7678 25.3052 57.8416 25.2074C57.9154 25.1095 57.9654 24.9959 57.9877 24.8754C58.01 24.7549 58.004 24.6308 57.9701 24.5131ZM53.4771 23.1458H51.6673L52.3458 20.7708H54.1556L53.4771 23.1458Z" fill="black"/>
<g clip-path="url(#clip1_326_1267)">
<path d="M33 72C44.598 72 54 62.598 54 51C54 39.402 44.598 30 33 30C21.402 30 12 39.402 12 51C12 62.598 21.402 72 33 72Z" fill="url(#paint0_linear_326_1267)"/>
<path d="M39.9683 61.7682L39.3788 59.0913C39.3651 59.0175 39.3354 58.9476 39.2917 58.8865C39.248 58.8254 39.1915 58.7747 39.1262 58.7378C39.0604 58.6994 38.9869 58.6765 38.911 58.6707C38.8351 58.6649 38.7589 58.6764 38.6881 58.7044L38.6038 58.7378L38.4015 58.7883C38.3119 58.8105 38.2078 58.836 38.0899 58.8639C37.9721 58.8919 37.8348 58.9199 37.6774 58.9481C37.52 58.9762 37.3545 59.0015 37.1809 59.0239C37.0074 59.0463 36.8193 59.0659 36.6171 59.0828C36.4149 59.0998 36.213 59.1079 36.0108 59.1079C34.6422 59.121 33.3017 58.7195 32.1657 57.9562C31.0297 57.1929 30.1513 56.1035 29.6463 54.8315H36.162C36.2859 54.8286 36.405 54.7837 36.4998 54.7041C36.5947 54.6245 36.6596 54.5149 36.6838 54.3934L37.0879 52.5077C37.1055 52.4292 37.1056 52.3477 37.0882 52.2692C37.0708 52.1907 37.0363 52.1169 36.9871 52.0532C36.9372 51.9894 36.8733 51.9379 36.8003 51.9028C36.7273 51.8677 36.6471 51.85 36.5661 51.8509H28.8391C28.8047 51.2621 28.8047 50.6718 28.8391 50.083H37.0556C37.3589 50.083 37.5385 49.937 37.5945 49.645L37.9985 47.7256C38.0112 47.6472 38.0068 47.567 37.9856 47.4905C37.9645 47.414 37.9271 47.3429 37.876 47.2822C37.8248 47.2214 37.7612 47.1724 37.6895 47.1385C37.6177 47.1046 37.5395 47.0865 37.4601 47.0856H29.58C30.1074 45.8679 30.987 44.8359 32.1057 44.1223C33.2419 43.3997 34.5645 43.0251 35.9109 43.0445C35.956 43.0221 36.1215 43.0277 36.4073 43.0613C36.5691 43.0857 36.7322 43.0998 36.8957 43.1034C37.0428 43.1087 37.1893 43.1256 37.3338 43.1538L37.7127 43.2128L38.0074 43.2716C38.0918 43.2886 38.1567 43.3024 38.2011 43.3138L38.2685 43.3305C38.3349 43.3534 38.4054 43.3614 38.4752 43.3542C38.545 43.347 38.6123 43.3246 38.6726 43.2886C38.7329 43.2536 38.7851 43.2062 38.8257 43.1496C38.8664 43.093 38.8946 43.0284 38.9085 42.9601L39.6326 40.283C39.6672 40.1468 39.6492 40.0025 39.5821 39.8789C39.5013 39.7592 39.3824 39.6703 39.2447 39.6267C38.1758 39.3641 37.0786 39.2341 35.9779 39.2394C33.4632 39.2394 31.2154 39.9578 29.2345 41.3946C27.2818 42.7917 25.8414 44.7909 25.1344 47.0856H23.4845C23.4165 47.0828 23.3485 47.0936 23.2846 47.1171C23.2207 47.1407 23.162 47.1766 23.112 47.2228C23.062 47.269 23.0215 47.3247 22.993 47.3865C22.9645 47.4484 22.9484 47.5152 22.9458 47.5833C22.9452 47.597 22.9452 47.6109 22.9458 47.6247V49.5442C22.9431 49.6122 22.9538 49.6801 22.9774 49.744C23.001 49.8079 23.0369 49.8665 23.0831 49.9165C23.1293 49.9665 23.1849 50.0069 23.2468 50.0354C23.3086 50.0639 23.3755 50.08 23.4435 50.0826C23.4571 50.0832 23.4709 50.0832 23.4846 50.0826H24.6127C24.5787 50.6216 24.5731 51.211 24.5957 51.8507H23.4846C23.3424 51.8526 23.2065 51.91 23.1059 52.0105C23.0053 52.1111 22.9478 52.2469 22.9459 52.3892V54.2914C22.9477 54.4337 23.005 54.5697 23.1057 54.6703C23.2063 54.7709 23.3423 54.8281 23.4846 54.8299H25.0842C25.7913 57.3106 27.1271 59.2834 29.0916 60.7482C31.056 62.2131 33.3515 62.9455 35.978 62.9456C36.1914 62.9456 36.4075 62.94 36.6263 62.9287C36.8451 62.9174 37.0501 62.9006 37.2411 62.8782C37.4319 62.856 37.6199 62.8308 37.8051 62.8027C37.9903 62.7745 38.1586 62.7469 38.31 62.7183C38.4615 62.6897 38.6047 62.6625 38.7393 62.6346C38.8616 62.6098 38.9825 62.5789 39.1016 62.5418C39.2084 62.508 39.2976 62.4831 39.3703 62.4666C39.4312 62.4536 39.4905 62.4338 39.5469 62.4076L39.6314 62.3906C39.7535 62.347 39.8554 62.26 39.9176 62.1462C39.9507 62.0897 39.9722 62.0272 39.9809 61.9623C39.9896 61.8974 39.9854 61.8314 39.9683 61.7682Z" fill="black"/>
</g>
<rect x="11" y="29" width="44" height="44" rx="22" stroke="black" stroke-width="2"/>
<defs>
<linearGradient id="paint0_linear_326_1267" x1="33" y1="30" x2="33" y2="72" gradientUnits="userSpaceOnUse">
<stop stop-color="#08FF88"/>
<stop offset="1" stop-color="#02FC84"/>
</linearGradient>
<clipPath id="clip0_326_1267">
<rect width="35" height="35" fill="white" transform="translate(0 2)"/>
</clipPath>
<clipPath id="clip1_326_1267">
<rect x="12" y="30" width="42" height="42" rx="21" fill="white"/>
</clipPath>
</defs>
</svg>
