<svg width="62" height="61" viewBox="0 0 62 61" fill="none" xmlns="http://www.w3.org/2000/svg">
<path d="M57.5209 17.1562V27.2136C57.5208 27.3267 57.4873 27.4371 57.4244 27.5311C57.3616 27.625 57.2723 27.6983 57.1679 27.7415C57.0634 27.7847 56.9485 27.7961 56.8376 27.774C56.7268 27.752 56.6249 27.6976 56.5449 27.6177L53.4873 24.5601L44.812 33.2355C44.7183 33.329 44.5951 33.3872 44.4634 33.4001C44.3316 33.4129 44.1995 33.3797 44.0895 33.306L38.5385 29.606L31.2357 35.0826C31.1412 35.1535 31.027 35.1935 30.9089 35.1969C30.7908 35.2003 30.6745 35.167 30.5761 35.1017L25.1147 31.4569L15.7912 37.6713C15.5809 37.8112 15.3236 37.8619 15.0758 37.8123C14.8281 37.7626 14.6103 37.6166 14.4702 37.4063L12.8842 35.0273C12.7442 34.817 12.6935 34.5597 12.7432 34.312C12.7929 34.0643 12.9389 33.8464 13.1491 33.7063L24.7982 25.9402C24.8923 25.8778 25.0027 25.8445 25.1156 25.8445C25.2285 25.8445 25.339 25.8778 25.433 25.9402L30.7534 29.4878L38.0562 24.0111C38.1507 23.9402 38.2649 23.9003 38.383 23.8969C38.5011 23.8935 38.6173 23.9267 38.7158 23.9921L43.8741 27.4328L50.1171 21.1899L47.0594 18.1323C46.9796 18.0523 46.9252 17.9504 46.9032 17.8396C46.8811 17.7287 46.8925 17.6138 46.9357 17.5093C46.9789 17.4049 47.0522 17.3156 47.1461 17.2528C47.2401 17.1899 47.3505 17.1563 47.4636 17.1562H57.5209ZM52.7553 46.7031H50.8491C50.5963 46.7031 50.3539 46.6027 50.1751 46.424C49.9964 46.2452 49.8959 46.0028 49.8959 45.75V33.3594C49.8959 33.1066 49.9964 32.8642 50.1751 32.6854C50.3539 32.5067 50.5963 32.4062 50.8491 32.4062H52.7553C53.0081 32.4062 53.2505 32.5067 53.4293 32.6854C53.608 32.8642 53.7084 33.1066 53.7084 33.3594V45.75C53.7084 46.0028 53.608 46.2452 53.4293 46.424C53.2505 46.6027 53.0081 46.7031 52.7553 46.7031ZM37.5053 46.7031H35.5991C35.3463 46.7031 35.1038 46.6027 34.9251 46.424C34.7464 46.2452 34.6459 46.0028 34.6459 45.75V37.1719C34.6459 36.9191 34.7464 36.6767 34.9251 36.4979C35.1038 36.3192 35.3463 36.2188 35.5991 36.2188H37.5053C37.7581 36.2188 38.0005 36.3192 38.1793 36.4979C38.358 36.6767 38.4584 36.9191 38.4584 37.1719V45.75C38.4584 46.0028 38.358 46.2452 38.1793 46.424C38.0005 46.6027 37.7581 46.7031 37.5053 46.7031ZM29.8803 46.7031H27.9741C27.7213 46.7031 27.4788 46.6027 27.3001 46.424C27.1213 46.2452 27.0209 46.0028 27.0209 45.75V40.9844C27.0209 40.7316 27.1213 40.4892 27.3001 40.3104C27.4788 40.1317 27.7213 40.0312 27.9741 40.0312H29.8803C30.1331 40.0312 30.3755 40.1317 30.5543 40.3104C30.733 40.4892 30.8334 40.7316 30.8334 40.9844V45.75C30.8334 46.0028 30.733 46.2452 30.5543 46.424C30.3755 46.6027 30.1331 46.7031 29.8803 46.7031ZM45.1303 46.7031H43.2241C42.9713 46.7031 42.7288 46.6027 42.5501 46.424C42.3714 46.2452 42.2709 46.0028 42.2709 45.75V39.0781C42.2709 38.8253 42.3714 38.5829 42.5501 38.4042C42.7288 38.2254 42.9713 38.125 43.2241 38.125H45.1303C45.3831 38.125 45.6255 38.2254 45.8043 38.4042C45.983 38.5829 46.0834 38.8253 46.0834 39.0781V45.75C46.0834 46.0028 45.983 46.2452 45.8043 46.424C45.6255 46.6027 45.3831 46.7031 45.1303 46.7031Z" fill="#2BFF91"/>
<path d="M56.5769 49.5625C57.103 49.5625 57.5205 49.9895 57.5205 50.5156V52.4219C57.5205 52.6747 57.4201 52.9171 57.2413 53.0958C57.0626 53.2746 56.8202 53.375 56.5674 53.375H6.05176C5.54619 53.375 5.06133 53.1742 4.70384 52.8167C4.34634 52.4592 4.14551 51.9743 4.14551 51.4688V8.57812C4.14551 8.32534 4.24593 8.08291 4.42467 7.90416C4.60342 7.72542 4.84585 7.625 5.09863 7.625H7.00488C7.25767 7.625 7.5001 7.72542 7.67884 7.90416C7.85759 8.08291 7.95801 8.32534 7.95801 8.57812V49.5625H56.5769Z" fill="#2BFF91"/>
<path d="M14.6299 46.7031H12.7236C12.4708 46.7031 12.2284 46.6027 12.0497 46.424C11.8709 46.2452 11.7705 46.0028 11.7705 45.75V42.8906C11.7705 42.6378 11.8709 42.3954 12.0497 42.2167C12.2284 42.0379 12.4708 41.9375 12.7236 41.9375H14.6299C14.8827 41.9375 15.1251 42.0379 15.3038 42.2167C15.4826 42.3954 15.583 42.6378 15.583 42.8906V45.75C15.583 46.0028 15.4826 46.2452 15.3038 46.424C15.1251 46.6027 14.8827 46.7031 14.6299 46.7031ZM22.2549 46.7031H20.3486C20.0958 46.7031 19.8534 46.6027 19.6747 46.424C19.4959 46.2452 19.3955 46.0028 19.3955 45.75V40.9844C19.3955 40.7316 19.4959 40.4892 19.6747 40.3104C19.8534 40.1317 20.0958 40.0312 20.3486 40.0312H22.2549C22.5077 40.0312 22.7501 40.1317 22.9288 40.3104C23.1076 40.4892 23.208 40.7316 23.208 40.9844V45.75C23.208 46.0028 23.1076 46.2452 22.9288 46.424C22.7501 46.6027 22.5077 46.7031 22.2549 46.7031Z" fill="#2BFF91"/>
</svg>
