<svg width="34" height="17" viewBox="0 0 34 17" fill="none" xmlns="http://www.w3.org/2000/svg">
<g clip-path="url(#clip0_326_1232)">
<mask id="mask0_326_1232" style="mask-type:luminance" maskUnits="userSpaceOnUse" x="0" y="0" width="34" height="17">
<path d="M34 0.00860596H0V16.9989H34V0.00860596Z" fill="white"/>
</mask>
<g mask="url(#mask0_326_1232)">
<path d="M5.40195 0.00842285C3.16885 0.00842285 1.62945 0.965462 0.464504 2.04772C0.464504 2.04772 -0.00588774 2.48312 5.58541e-05 2.49638L4.8925 7.27494L9.78404 2.49638C8.85771 1.25075 7.11117 0.00842285 5.40195 0.00842285Z" fill="#FF2B2B"/>
<path d="M17.4826 0.00848389C15.2496 0.00848389 13.7101 0.965521 12.5451 2.04778C12.5451 2.04778 12.1156 2.47157 12.0961 2.49645L6.04883 8.4037L10.9336 13.1748L21.8648 2.49645C20.9384 1.25081 19.1927 0.00848389 17.4826 0.00848389Z" fill="#FF2B2B"/>
<path d="M29.5965 0.00848389C27.3634 0.00848389 25.8241 0.965521 24.6591 2.04778C24.6591 2.04778 24.2116 2.47488 24.1946 2.49645L12.0977 14.3134L13.3781 15.564C15.3591 17.4989 18.6017 17.4989 20.5826 15.564L33.9633 2.49645H33.9787C33.0523 1.25081 31.3065 0.00848389 29.5965 0.00848389Z" fill="#FF2B2B"/>
</g>
</g>
<defs>
<clipPath id="clip0_326_1232">
<rect width="34" height="17" fill="white" transform="translate(0 0.00860596)"/>
</clipPath>
</defs>
</svg>
