<svg width="100" height="61" viewBox="0 0 100 61" fill="none" xmlns="http://www.w3.org/2000/svg">
<g clip-path="url(#clip0_326_1294)">
<path d="M78.3429 52.5069C66.453 54.9299 54.816 47.2329 52.393 35.3429C49.97 23.4529 57.6669 11.816 69.5569 9.393C81.4469 6.96999 93.0839 14.6669 95.5069 26.5569C97.9299 38.4469 90.2329 50.0839 78.3429 52.5069Z" fill="#2BFF91"/>
<path d="M75.947 38.6819L77.5051 46.3279L84.2586 31.0944L75.947 38.6819ZM83.4207 28.7043L71.2039 15.4072L73.4484 26.4214L83.4207 28.7043ZM73.62 27.2635L75.542 36.6947L83.525 29.56L73.62 27.2635ZM64.39 32.5825L70.3955 15.5719L72.6401 26.5862L64.39 32.5825ZM72.8117 27.4282L74.7336 36.8594L64.5953 33.4177L72.8117 27.4282ZM75.1386 38.8467L76.6967 46.4927L64.5206 35.1168L75.1386 38.8467Z" fill="black"/>
</g>
<path d="M30.8389 1.65625C46.9501 1.65625 60.0107 14.7169 60.0107 30.8281C60.0107 46.9393 46.9501 60 30.8389 60C14.7277 60 1.66699 46.9393 1.66699 30.8281C1.66699 14.7169 14.7277 1.65625 30.8389 1.65625ZM29.4092 17.7881L29.1729 18.7441L28.2139 18.5234C27.5491 18.3703 26.8866 18.2166 26.2422 18.0547L25.3027 17.8184L25.3057 17.8018L23.0049 17.2207L22.6738 18.5645C22.7237 18.5764 22.774 18.5885 22.8242 18.6006C23.106 18.6686 23.393 18.7395 23.6084 18.7959C23.7136 18.8234 23.8142 18.8505 23.8916 18.874C23.9099 18.8796 23.9355 18.8894 23.9648 18.8994C25.3044 19.1525 26.2423 20.3915 26.1006 21.7646L26.0938 21.834L26.0771 21.9014L22.6475 35.8125L22.6406 35.8379L22.6328 35.8623C22.6318 35.8656 22.6282 35.8766 22.624 35.8896C22.2848 36.9525 21.184 37.5572 20.1162 37.2969C20.0652 37.2898 20.0155 37.2809 19.9844 37.2744C19.9087 37.2586 19.8094 37.2357 19.7041 37.21C19.4893 37.1575 19.2044 37.0839 18.9238 37.0107C18.8255 36.9851 18.7273 36.9587 18.6318 36.9336L17.917 38.6006L20.7588 39.3174H20.7598C21.4985 39.5045 22.2483 39.7077 22.9434 39.8877L23.9004 40.1348L23.6641 41.0947L22.6367 45.2646L23.75 45.5459L24.7627 41.4414L25.0078 40.4443L25.998 40.7168C26.8241 40.9435 27.6271 41.1522 28.4131 41.3496L29.3789 41.5928L29.1396 42.5596L28.1299 46.6504L29.2461 46.9316L30.2705 42.7822L30.498 41.8604L31.4297 42.0391C34.0012 42.5314 36.0797 42.6377 37.6709 42.1426C39.1709 41.6757 40.3442 40.6406 41.0771 38.5225L41.0986 38.459L41.1289 38.3994C41.1827 38.2928 41.2321 38.1833 41.2773 38.0723C42.2028 35.7985 41.1104 33.2051 38.8369 32.2793L35.7988 31.042L39.0098 30.374C40.7451 30.0129 42.0203 28.5296 42.1172 26.7598L42.1201 26.7139L42.127 26.668C42.3562 25.1166 41.9025 23.9857 40.9941 23.0596C40.037 22.0837 38.5403 21.306 36.6611 20.6514L35.8008 20.3516L36.0186 19.4678L37.0322 15.3545L35.915 15.0732L34.9375 19.042L34.6973 20.0176L33.7217 19.7725C32.9296 19.5728 32.114 19.3839 31.293 19.1943L30.3037 18.9658L30.5469 17.9805L31.5361 13.9688L30.4199 13.6875L29.4092 17.7881ZM28.6494 30.1875C29.5833 30.4232 31.9256 30.8481 33.833 31.7236C34.7958 32.1656 35.7661 32.7697 36.4248 33.6221C37.1189 34.5203 37.4268 35.6474 37.1035 36.958C36.7872 38.2426 35.9835 39.0679 34.96 39.5195C33.9885 39.948 32.8546 40.0282 31.7998 39.9727C29.699 39.862 27.4431 39.1719 26.4824 38.9307L25.5166 38.6885L25.7559 37.7217L27.4336 30.917L27.6748 29.9414L28.6494 30.1875ZM30.9385 20.9014C31.6891 21.0906 33.6887 21.4404 35.3008 22.21C36.1201 22.6011 36.9561 23.1499 37.5176 23.9424C38.1095 24.7778 38.3418 25.8105 38.0488 26.999C37.7612 28.1644 37.0694 28.9461 36.1631 29.3916C35.3049 29.8134 34.3157 29.9056 33.4121 29.8721C31.6218 29.8056 29.7076 29.2084 28.9277 29.0117L27.9639 28.7686L28.2012 27.8027L29.7236 21.6309L29.9639 20.6553L30.9385 20.9014Z" fill="#2BFF91" stroke="black" stroke-width="2"/>
<defs>
<clipPath id="clip0_326_1294">
<rect width="44" height="44" fill="white" transform="translate(48 13.786) rotate(-11.5184)"/>
</clipPath>
</defs>
</svg>
