<svg width="58" height="63" viewBox="0 0 58 63" fill="none" xmlns="http://www.w3.org/2000/svg">
<path d="M57.0001 30.6587L56.0005 30.6304L57.0001 30.6587ZM0.341139 6.40789C-0.0743247 6.77177 -0.116142 7.40355 0.247735 7.81902L6.17749 14.5894C6.54137 15.0049 7.17315 15.0467 7.58861 14.6828C8.00408 14.3189 8.0459 13.6871 7.68202 13.2717L2.41113 7.25356L8.42924 1.98267C8.84471 1.61879 8.88653 0.987008 8.52265 0.571543C8.15877 0.156079 7.52699 0.114261 7.11152 0.47814L0.341139 6.40789ZM18 61.6597C18.3036 62.6125 18.3039 62.6124 18.3044 62.6123C18.3048 62.6121 18.3054 62.6119 18.3061 62.6117C18.3076 62.6113 18.3096 62.6106 18.3122 62.6098C18.3174 62.6081 18.3249 62.6057 18.3347 62.6025C18.3544 62.5962 18.3831 62.5869 18.4206 62.5746C18.4957 62.5501 18.6061 62.5138 18.7495 62.4658C19.0363 62.3699 19.455 62.2273 19.9869 62.0395C21.0507 61.664 22.5681 61.1074 24.3896 60.3809C28.0299 58.929 32.8972 56.7935 37.7884 54.0624C42.6721 51.3356 47.6233 47.9912 51.3992 44.1087C55.1695 40.2318 57.857 35.7245 57.9996 30.687L57.0001 30.6587L56.0005 30.6304C55.8776 34.9664 53.5573 39.0209 49.9654 42.7143C46.379 46.402 41.6133 49.6361 36.8134 52.3162C32.021 54.992 27.2379 57.0917 23.6486 58.5232C21.8554 59.2385 20.3633 59.7857 19.3212 60.1536C18.8002 60.3375 18.3919 60.4765 18.1148 60.5692C17.9763 60.6155 17.8707 60.6503 17.8002 60.6733C17.7649 60.6848 17.7385 60.6934 17.7211 60.699C17.7124 60.7018 17.706 60.7039 17.7019 60.7052C17.6998 60.7058 17.6984 60.7063 17.6975 60.7066C17.697 60.7067 17.6968 60.7068 17.6965 60.7069C17.6965 60.7069 17.6965 60.7069 18 61.6597ZM57.0001 30.6587L57.9996 30.687C58.1552 25.1953 54.3244 20.9844 49 17.7951C43.6471 14.5888 36.5142 12.2403 29.4451 10.5294C22.3606 8.81479 15.2678 7.72381 9.95235 7.06146C7.29298 6.73007 5.07473 6.50553 3.52003 6.36374C2.74261 6.29283 2.1309 6.2426 1.71268 6.21004C1.50357 6.19376 1.34281 6.18189 1.23388 6.17407C1.17942 6.17016 1.13791 6.16725 1.1098 6.16531C1.09574 6.16435 1.08503 6.16362 1.07772 6.16312C1.07406 6.16288 1.07126 6.16269 1.06931 6.16256C1.06834 6.16249 1.06752 6.16244 1.06703 6.16241C1.06643 6.16237 1.06605 6.16234 1 7.16016C0.933955 8.15797 0.934001 8.15798 0.93426 8.15799C0.934635 8.15802 0.935112 8.15805 0.935856 8.1581C0.937346 8.1582 0.939694 8.15836 0.94289 8.15857C0.949278 8.159 0.959064 8.15967 0.972188 8.16058C0.99844 8.16239 1.03805 8.16515 1.09058 8.16893C1.19566 8.17648 1.35243 8.18804 1.55743 8.20401C1.96745 8.23593 2.57034 8.28542 3.33838 8.35547C4.8746 8.49558 7.0707 8.71784 9.70505 9.04611C14.977 9.70304 21.9892 10.7827 28.9746 12.4733C35.9755 14.1677 42.8776 16.4592 47.9723 19.5109C53.0954 22.5796 56.1247 26.2447 56.0005 30.6304L57.0001 30.6587Z" fill="white"/>
</svg>
