<svg width="23" height="23" viewBox="0 0 23 23" fill="none" xmlns="http://www.w3.org/2000/svg">
<g clip-path="url(#clip0_445_2802)">
<path d="M20.6634 10.3169V11.1602C20.6623 13.1369 20.0222 15.0603 18.8386 16.6435C17.6551 18.2268 15.9914 19.385 14.0958 19.9454C12.2002 20.5059 10.1742 20.4386 8.32001 19.7536C6.46579 19.0685 4.88268 17.8025 3.80679 16.1442C2.73091 14.4859 2.21989 12.5243 2.34995 10.5518C2.48001 8.57938 3.24418 6.70183 4.5285 5.19918C5.81282 3.69653 7.54846 2.6493 9.47658 2.21366C11.4047 1.77803 13.422 1.97734 15.2276 2.78186M20.6634 3.82686L11.4967 13.0027L8.74675 10.2527" stroke="#2BFF91" stroke-width="2" stroke-linecap="round" stroke-linejoin="round"/>
</g>
<defs>
<clipPath id="clip0_445_2802">
<rect width="22" height="22" fill="white" transform="translate(0.49707 0.160156)"/>
</clipPath>
</defs>
</svg>
