<svg width="120" height="25" viewBox="0 0 120 25" fill="none" xmlns="http://www.w3.org/2000/svg">
<path d="M5.825 22.3726L7.45 15.3476L2 10.6226L9.2 9.99756L12 3.37256L14.8 9.99756L22 10.6226L16.55 15.3476L18.175 22.3726L12 18.6476L5.825 22.3726Z" fill="#2BFF91"/>
<path d="M29.825 22.3726L31.45 15.3476L26 10.6226L33.2 9.99756L36 3.37256L38.8 9.99756L46 10.6226L40.55 15.3476L42.175 22.3726L36 18.6476L29.825 22.3726Z" fill="#2BFF91"/>
<path d="M53.825 22.3726L55.45 15.3476L50 10.6226L57.2 9.99756L60 3.37256L62.8 9.99756L70 10.6226L64.55 15.3476L66.175 22.3726L60 18.6476L53.825 22.3726Z" fill="#2BFF91"/>
<path d="M77.825 22.3726L79.45 15.3476L74 10.6226L81.2 9.99756L84 3.37256L86.8 9.99756L94 10.6226L88.55 15.3476L90.175 22.3726L84 18.6476L77.825 22.3726Z" fill="#2BFF91"/>
<path d="M101.825 22.3726L103.45 15.3476L98 10.6226L105.2 9.99756L108 3.37256L110.8 9.99756L118 10.6226L112.55 15.3476L114.175 22.3726L108 18.6476L101.825 22.3726Z" fill="#2BFF91"/>
</svg>
