<svg width="37" height="38" viewBox="0 0 37 38" fill="none" xmlns="http://www.w3.org/2000/svg">
<rect y="0.372559" width="37" height="37" rx="18.5" fill="#2BFF91"/>
<path d="M14.6283 10.3726C13.8831 10.3726 11.6365 11.324 11.2335 11.5142C10.8304 11.7043 10.383 12.2979 9.87537 13.2776C9.36704 14.2573 8.95913 15.4025 8.29636 17.0871C7.63429 18.7717 7.47985 22.0195 7.50201 23.0107C7.52417 24.002 7.6329 24.7763 8.60593 25.3627C9.57827 25.9483 10.4384 26.5614 11.3436 26.9301C12.2494 27.2989 12.8672 27.5642 13.2869 27.1955C13.7065 26.8268 13.9829 26.1811 13.9829 26.1811C13.9829 26.1811 14.3804 25.6049 13.6297 25.2593C12.8789 24.913 12.5036 24.6707 12.5361 24.3136C12.5694 23.9564 12.6241 23.7605 12.8118 23.8068C12.9994 23.853 13.442 24.6823 15.1422 25.0626C16.8424 25.4429 18.4997 25.3858 18.4997 25.3858C18.4997 25.3858 20.1576 25.4436 21.8578 25.0626C23.558 24.6823 23.9999 23.853 24.1875 23.8068C24.3752 23.7605 24.4299 23.9564 24.4632 24.3129C24.4964 24.6707 24.1211 24.913 23.3703 25.2593C22.6196 25.6049 23.0171 26.1811 23.0171 26.1811C23.0171 26.1811 23.2935 26.826 23.7131 27.1955C24.1321 27.5642 24.7506 27.2989 25.6557 26.9301C26.5609 26.5614 27.4217 25.949 28.3941 25.3627C29.3671 24.7763 29.4758 24.002 29.498 23.0107C29.5202 22.0202 29.3657 18.7717 28.7029 17.0871C28.0409 15.4025 27.6323 14.2573 27.1239 13.2776C26.617 12.2979 26.1689 11.7043 25.7665 11.5135C25.3635 11.324 23.1162 10.3726 22.371 10.3726C21.6258 10.3726 21.4056 10.9148 21.4056 10.9148L21.1459 11.5142C21.1459 11.5142 19.4007 11.1679 18.5114 11.1671C17.6222 11.1671 15.8541 11.5142 15.8541 11.5142L15.5944 10.9141C15.5944 10.9141 15.3742 10.3726 14.6283 10.3726ZM14.7093 17.565H14.737C15.8237 17.565 16.7039 18.5577 16.7039 19.7818C16.7039 21.0065 15.8237 21.9985 14.737 21.9985C13.6504 21.9985 12.7702 21.0065 12.7702 19.7818C12.7695 18.5693 13.6338 17.5817 14.7093 17.565ZM22.263 17.565H22.2907C23.3662 17.5817 24.2298 18.57 24.2298 19.7818C24.2298 21.0065 23.3496 21.9985 22.263 21.9985C21.1757 21.9985 20.2961 21.0065 20.2961 19.7818C20.2961 18.5577 21.1757 17.565 22.263 17.565Z" fill="black"/>
</svg>
