<svg width="37" height="38" viewBox="0 0 37 38" fill="none" xmlns="http://www.w3.org/2000/svg">
<g clip-path="url(#clip0_447_3312)">
<path d="M18.5 0.372559C8.28337 0.372559 0 8.65593 0 18.8726C0 29.0892 8.28337 37.3726 18.5 37.3726C28.7166 37.3726 37 29.0892 37 18.8726C37 8.65362 28.7166 0.372559 18.5 0.372559ZM29.8659 23.0142C29.7411 24.5544 28.5732 26.52 26.936 26.8044C21.7028 27.2091 15.4914 27.1606 10.0663 26.8044C8.37356 26.5917 7.26125 24.5521 7.13637 23.0142C6.87275 19.7814 6.87275 17.9406 7.13637 14.7077C7.26125 13.1699 8.40131 11.1419 10.0663 10.9569C15.429 10.5059 21.6704 10.6031 26.936 10.9569C28.823 11.0262 29.7411 12.9664 29.8659 14.5066C30.1273 17.7394 30.1273 19.7814 29.8659 23.0142ZM16.1875 23.4976L23.125 18.8726L16.1875 14.2476V23.4976Z" fill="#2BFF91"/>
</g>
<defs>
<clipPath id="clip0_447_3312">
<rect width="37" height="37" fill="white" transform="translate(0 0.372559)"/>
</clipPath>
</defs>
</svg>
