<svg width="37" height="38" viewBox="0 0 37 38" fill="none" xmlns="http://www.w3.org/2000/svg">
<path d="M18.5 0.372559C14.8411 0.372559 11.2643 1.45756 8.22196 3.49037C5.17965 5.52318 2.80846 8.41248 1.40824 11.7929C0.00801575 15.1733 -0.358346 18.8931 0.355481 22.4817C1.06931 26.0704 2.83126 29.3668 5.41853 31.954C8.0058 34.5413 11.3022 36.3033 14.8908 37.0171C18.4795 37.7309 22.1992 37.3645 25.5796 35.9643C28.9601 34.5641 31.8494 32.1929 33.8822 29.1506C35.915 26.1083 37 22.5315 37 18.8726C37.0002 16.443 36.5218 14.0373 35.5922 11.7927C34.6625 9.54806 33.2999 7.50856 31.5819 5.79063C29.864 4.07271 27.8245 2.71002 25.5799 1.78038C23.3353 0.850736 20.9295 0.372357 18.5 0.372559ZM24.3821 28.4046C24.3129 28.5773 24.2075 28.7331 24.0731 28.8618C23.9387 28.9904 23.7783 29.0888 23.6028 29.1503C23.4272 29.2119 23.2406 29.2353 23.0553 29.2188C22.87 29.2023 22.6903 29.1465 22.5284 29.0549L17.5063 25.1525L14.283 28.1263C14.2082 28.1815 14.1207 28.2171 14.0286 28.2297C13.9364 28.2422 13.8426 28.2315 13.7557 28.1983L14.3736 22.6696L14.3934 22.6853L14.406 22.5762C14.406 22.5762 23.4433 14.3483 23.8114 13.9977C24.1841 13.6481 24.0612 13.5722 24.0612 13.5722C24.0824 13.1458 23.3924 13.5722 23.3924 13.5722L11.4182 21.2757L6.43155 19.5774C6.43155 19.5774 5.66565 19.3027 5.5935 18.6987C5.51765 18.0993 6.45651 17.7737 6.45651 17.7737L26.283 9.89726C26.283 9.89726 27.9128 9.1711 27.9128 10.3737L24.3821 28.4046Z" fill="#2BFF91"/>
</svg>
