<svg width="295" height="50" viewBox="0 0 295 50" fill="none" xmlns="http://www.w3.org/2000/svg">
<path d="M45.8337 7.2915H4.16699C2.4411 7.2915 1.04199 8.69061 1.04199 10.4165V39.5832C1.04199 41.3091 2.4411 42.7082 4.16699 42.7082H45.8337C47.5596 42.7082 48.9587 41.3091 48.9587 39.5832V10.4165C48.9587 8.69061 47.5596 7.2915 45.8337 7.2915Z" fill="white"/>
<path d="M20.0391 29.9994H22.7568L24.4578 20.0244H21.7391L20.0391 29.9994Z" fill="black"/>
<path d="M29.9398 24.0302C28.9898 23.5688 28.4076 23.2605 28.4138 22.7938C28.4138 22.3771 28.9065 21.9355 29.9763 21.9355C30.7646 21.9157 31.546 22.0862 32.2544 22.4323L32.6232 20.2709C31.8417 19.989 31.0164 19.8479 30.1857 19.8542C27.4992 19.8542 25.6023 21.2084 25.5909 23.1459C25.5763 24.5792 26.9451 25.3792 27.9732 25.8542C29.0315 26.3427 29.3878 26.6542 29.3825 27.0907C29.3753 27.7594 28.5378 28.0657 27.7555 28.0657C26.7434 28.0893 25.7421 27.8545 24.8461 27.3834L24.4648 29.6157C25.434 29.9738 26.4598 30.1541 27.493 30.148C30.3513 30.148 32.2065 28.8105 32.2273 26.7407C32.2325 25.6052 31.5086 24.7417 29.9398 24.0302Z" fill="black"/>
<path d="M39.5898 20.0339H37.4888C37.1936 19.9961 36.8941 20.0566 36.6367 20.2061C36.3793 20.3557 36.1783 20.5858 36.0648 20.861L32.0273 29.9995H34.8826C34.8826 29.9995 35.3492 28.7704 35.4544 28.5006H38.9367C39.018 28.8506 39.268 29.9954 39.268 29.9954H41.7909L39.5898 20.0339ZM36.2378 26.4641C36.3503 26.1756 37.4596 23.3266 37.6815 22.7235C38.0482 24.4423 37.6909 22.7745 38.494 26.4641H36.2378Z" fill="black"/>
<path d="M17.762 20.0325L15.0995 26.8346L14.8161 25.4523L13.863 20.8689C13.7936 20.6034 13.6305 20.3719 13.4039 20.217C13.1772 20.0622 12.9023 19.9944 12.6297 20.0262H8.24531L8.21094 20.2346C9.2078 20.4698 10.1685 20.838 11.0672 21.3293L13.4839 29.9929H16.3609L20.6411 20.0366L17.762 20.0325Z" fill="black"/>
<path d="M102.834 7.2915H61.167C59.4411 7.2915 58.042 8.69061 58.042 10.4165V39.5832C58.042 41.3091 59.4411 42.7082 61.167 42.7082H102.834C104.56 42.7082 105.959 41.3091 105.959 39.5832V10.4165C105.959 8.69061 104.56 7.2915 102.834 7.2915Z" fill="#243747"/>
<path d="M76.7923 33.3332C81.3947 33.3332 85.1256 29.6022 85.1256 24.9998C85.1256 20.3975 81.3947 16.6665 76.7923 16.6665C72.1899 16.6665 68.459 20.3975 68.459 24.9998C68.459 29.6022 72.1899 33.3332 76.7923 33.3332Z" fill="#E61C24"/>
<path d="M87.138 33.3332C91.7404 33.3332 95.4713 29.6022 95.4713 24.9998C95.4713 20.3975 91.7404 16.6665 87.138 16.6665C82.5356 16.6665 78.8047 20.3975 78.8047 24.9998C78.8047 29.6022 82.5356 33.3332 87.138 33.3332Z" fill="#F99F1B"/>
<path d="M81.964 18.4751C80.9791 19.2537 80.1832 20.2452 79.6361 21.3753C79.0889 22.5053 78.8047 23.7446 78.8047 25.0001C78.8047 26.2556 79.0889 27.4949 79.6361 28.6249C80.1832 29.7549 80.9791 30.7465 81.964 31.5251C82.949 30.7465 83.7448 29.7549 84.292 28.6249C84.8392 27.4949 85.1234 26.2556 85.1234 25.0001C85.1234 23.7446 84.8392 22.5053 84.292 21.3753C83.7448 20.2452 82.949 19.2537 81.964 18.4751V18.4751Z" fill="#F26622"/>
<rect x="114" y="7" width="58" height="36" rx="3" fill="white"/>
<path d="M128.088 17.8484C127.537 18.4994 126.656 19.0128 125.774 18.9395C125.664 18.0593 126.096 17.1241 126.601 16.5465C127.151 15.8772 128.115 15.4004 128.896 15.3638C128.987 16.2806 128.629 17.1791 128.088 17.8484ZM128.887 19.1137C127.61 19.0403 126.518 19.838 125.912 19.838C125.297 19.838 124.37 19.1504 123.36 19.1687C122.047 19.187 120.826 19.9297 120.156 21.1124C118.779 23.4779 119.798 26.9803 121.129 28.9057C121.781 29.8592 122.561 30.9044 123.589 30.8677C124.562 30.831 124.948 30.2351 126.123 30.2351C127.307 30.2351 127.647 30.8677 128.675 30.8494C129.74 30.831 130.411 29.8959 131.062 28.9423C131.806 27.8604 132.109 26.8061 132.127 26.7511C132.109 26.7327 130.071 25.9534 130.052 23.6063C130.034 21.6442 131.659 20.709 131.733 20.654C130.814 19.2971 129.382 19.1504 128.887 19.1137ZM136.259 16.4548V30.7485H138.48V25.8617H141.556C144.365 25.8617 146.339 23.9363 146.339 21.1491C146.339 18.3619 144.402 16.4548 141.629 16.4548H136.259ZM138.48 18.3252H141.042C142.97 18.3252 144.071 19.3521 144.071 21.1583C144.071 22.9645 142.97 24.0005 141.033 24.0005H138.48V18.3252ZM150.397 30.8585C151.792 30.8585 153.087 30.1526 153.675 29.034H153.72V30.7485H155.777V23.6338C155.777 21.5709 154.124 20.2414 151.581 20.2414C149.222 20.2414 147.478 21.5892 147.413 23.4412H149.415C149.58 22.561 150.397 21.9834 151.517 21.9834C152.876 21.9834 153.638 22.6161 153.638 23.7805V24.569L150.865 24.734C148.285 24.8899 146.89 25.9442 146.89 27.7779C146.89 29.63 148.331 30.8585 150.397 30.8585ZM150.994 29.1624C149.809 29.1624 149.057 28.5939 149.057 27.7229C149.057 26.8244 149.782 26.3018 151.168 26.2193L153.638 26.0634V26.8702C153.638 28.2089 152.499 29.1624 150.994 29.1624ZM158.522 34.636C160.689 34.636 161.708 33.8108 162.598 31.3078L166.5 20.3789H164.242L161.625 28.8231H161.579L158.963 20.3789H156.64L160.404 30.7852L160.202 31.4178C159.862 32.4905 159.311 32.9031 158.329 32.9031C158.155 32.9031 157.815 32.8848 157.677 32.8665V34.581C157.806 34.6176 158.357 34.636 158.522 34.636Z" fill="black"/>
<rect x="179.5" y="4.5" width="115" height="41" rx="1.5" stroke="white" stroke-opacity="0.19"/>
<path d="M212.09 16.4712C211.574 15.0523 210.458 13.9387 209.039 13.4225C207.731 13 206.54 13 204.121 13H196.86C194.461 13 193.25 13 191.961 13.3984C190.539 13.9185 189.423 15.0403 188.91 16.4622C188.5 17.7634 188.5 18.9632 188.5 21.3629V28.6363C188.5 31.048 188.5 32.2396 188.898 33.5408C189.414 34.9597 190.531 36.0733 191.949 36.5895C193.25 37 194.449 37 196.852 37H204.129C206.54 37 207.739 37 209.031 36.6016C210.453 36.0853 211.574 34.9642 212.09 33.5415C212.5 32.2404 212.5 31.0405 212.5 28.6371V21.3832C212.5 18.9715 212.5 17.7716 212.09 16.4705L212.09 16.4712ZM205.922 21.1063L204.989 22.0368C204.801 22.2086 204.512 22.2124 204.32 22.0443C203.418 21.2864 202.277 20.8677 201.101 20.8639C200.128 20.8639 199.159 21.1843 199.159 22.0758C199.159 22.9747 200.198 23.2756 201.397 23.7251C203.499 24.429 205.238 25.3077 205.238 27.3674C205.238 29.6111 203.499 31.1508 200.659 31.3189L200.398 32.5225C200.35 32.7491 200.152 32.9097 199.921 32.9097H198.128L198.038 32.9022C197.773 32.8437 197.605 32.578 197.659 32.3124L197.941 31.042C196.862 30.7726 195.87 30.2294 195.057 29.4707V29.4587C194.87 29.2711 194.87 28.9665 195.057 28.7789L196.057 27.8094C196.248 27.6338 196.542 27.6338 196.729 27.8094C197.64 28.6693 198.859 29.1496 200.12 29.1301C201.421 29.1301 202.288 28.5793 202.288 27.7074C202.288 26.8354 201.409 26.6088 199.75 25.9875C197.988 25.3579 196.32 24.4672 196.32 22.3842C196.32 19.965 198.328 18.7846 200.71 18.6751L200.96 17.4437C201.007 17.2171 201.21 17.0565 201.441 17.061H203.218L203.32 17.073C203.578 17.1316 203.749 17.3814 203.691 17.6433L203.422 19.015C204.32 19.3122 205.172 19.7849 205.898 20.4025L205.922 20.4257C206.109 20.6253 206.109 20.9262 205.922 21.1056L205.922 21.1063Z" fill="#2BFF91"/>
<path d="M222.35 31.18C219.155 31.18 217.085 28.96 217.085 25.525C217.085 22.12 219.23 19.855 222.44 19.855C225.035 19.855 226.97 21.37 227.345 23.725H225.32C224.945 22.45 223.85 21.7 222.395 21.7C220.37 21.7 219.095 23.17 219.095 25.51C219.095 27.835 220.385 29.335 222.395 29.335C223.88 29.335 225.02 28.555 225.38 27.34H227.375C226.955 29.65 224.945 31.18 222.35 31.18ZM230.885 31.195C229.31 31.195 228.35 30.28 228.35 28.885C228.35 27.52 229.34 26.665 231.095 26.53L233.315 26.365V26.2C233.315 25.195 232.715 24.79 231.785 24.79C230.705 24.79 230.105 25.24 230.105 26.02H228.545C228.545 24.415 229.865 23.365 231.875 23.365C233.87 23.365 235.1 24.445 235.1 26.5V31H233.495L233.36 29.905C233.045 30.67 232.04 31.195 230.885 31.195ZM231.485 29.815C232.61 29.815 233.33 29.14 233.33 28V27.61L231.785 27.73C230.645 27.835 230.21 28.21 230.21 28.81C230.21 29.485 230.66 29.815 231.485 29.815ZM236.328 28.75H238.068C238.083 29.395 238.563 29.8 239.403 29.8C240.258 29.8 240.723 29.455 240.723 28.915C240.723 28.54 240.528 28.27 239.868 28.12L238.533 27.805C237.198 27.505 236.553 26.875 236.553 25.69C236.553 24.235 237.783 23.365 239.493 23.365C241.158 23.365 242.283 24.325 242.298 25.765H240.558C240.543 25.135 240.123 24.73 239.418 24.73C238.698 24.73 238.278 25.06 238.278 25.615C238.278 26.035 238.608 26.305 239.238 26.455L240.573 26.77C241.818 27.055 242.448 27.625 242.448 28.765C242.448 30.265 241.173 31.195 239.343 31.195C237.498 31.195 236.328 30.205 236.328 28.75ZM245.671 31H243.841V19.84H245.686V24.55C246.151 23.83 247.021 23.365 248.086 23.365C249.916 23.365 250.876 24.52 250.876 26.44V31H249.046V26.875C249.046 25.63 248.431 25.03 247.501 25.03C246.346 25.03 245.671 25.84 245.671 26.95V31ZM257.932 31H255.937L259.897 20.035H261.862L265.822 31H263.797L262.912 28.465H258.817L257.932 31ZM260.632 23.305L259.387 26.845H262.357L261.097 23.305C261.007 23.02 260.902 22.69 260.872 22.465C260.827 22.675 260.737 23.005 260.632 23.305ZM266.927 34.435V23.59H268.622L268.742 24.715C269.192 23.86 270.167 23.365 271.292 23.365C273.377 23.365 274.757 24.88 274.757 27.205C274.757 29.515 273.497 31.195 271.292 31.195C270.182 31.195 269.222 30.76 268.757 30.01V34.435H266.927ZM268.772 27.295C268.772 28.63 269.597 29.545 270.857 29.545C272.147 29.545 272.912 28.615 272.912 27.295C272.912 25.975 272.147 25.03 270.857 25.03C269.597 25.03 268.772 25.96 268.772 27.295ZM276.215 34.435V23.59H277.91L278.03 24.715C278.48 23.86 279.455 23.365 280.58 23.365C282.665 23.365 284.045 24.88 284.045 27.205C284.045 29.515 282.785 31.195 280.58 31.195C279.47 31.195 278.51 30.76 278.045 30.01V34.435H276.215ZM278.06 27.295C278.06 28.63 278.885 29.545 280.145 29.545C281.435 29.545 282.2 28.615 282.2 27.295C282.2 25.975 281.435 25.03 280.145 25.03C278.885 25.03 278.06 25.96 278.06 27.295Z" fill="white"/>
</svg>
